<svg width="16" height="20" viewBox="0 0 16 20" fill="none" xmlns="http://www.w3.org/2000/svg">
    <path fill-rule="evenodd" clip-rule="evenodd" d="M2.70698 0.00192446C1.43462 0.00437641 0.103162 1.23569 0.0692481 2.50759C0.0302783 3.96911 0.000372816 6.29886 0.00042732 10.0076L0.000433725 17.9996C0.000434611 19.1042 0.895865 19.9996 2.00043 19.9996H7.99033H13.9961C15.1007 19.9996 15.9961 19.1042 15.9961 17.9996V11.8162V4.00384L14.1349 3.98431C12.3437 3.96552 12.2705 3.96184 12.1862 3.88665C11.996 3.71697 11.9922 3.6763 11.9922 1.77856V0L6.1818 0.000156247C4.66146 0.000187537 3.53859 0.000321867 2.70698 0.00192446ZM13.0079 1.66013V3.00776H14.3651H15.7222L14.375 1.66013C13.6341 0.918929 13.0233 0.312495 13.0178 0.312495C13.0123 0.312495 13.0079 0.918929 13.0079 1.66013ZM8.40641 5.04308C9.14484 5.19706 9.80295 5.85517 9.95693 6.5936C10.0638 7.10612 9.95189 7.65948 9.64999 8.11111L9.5678 8.23407L9.71561 8.32239C10.4924 8.7868 10.9624 9.5487 10.9877 10.3845C10.9965 10.6757 10.9411 10.8039 10.7532 10.927C10.6554 10.9911 10.4646 10.9959 8.00966 10.9959C5.46014 10.9959 5.36701 10.9933 5.24495 10.9195C5.00276 10.773 4.94933 10.5034 5.05874 9.98029C5.18792 9.363 5.59342 8.78012 6.14262 8.42224L6.43559 8.23134L6.32586 8.06873C6.0579 7.67166 5.9436 7.0357 6.05423 6.5575C6.29704 5.50834 7.35893 4.82464 8.40641 5.04308ZM7.54576 6.1172C6.94066 6.41875 6.81863 7.21273 7.30296 7.69705C7.64369 8.03775 8.10075 8.09076 8.52165 7.83834C8.90594 7.60787 9.0723 7.15335 8.94262 6.68824C8.87633 6.45067 8.5661 6.13118 8.33544 6.06302C8.06482 5.98306 7.7751 6.00294 7.54576 6.1172ZM7.23358 9.02601C6.98202 9.0755 6.67195 9.22972 6.48586 9.3978C6.34122 9.52847 6.09532 9.88815 6.09427 9.97053C6.09407 9.98662 6.95554 9.99982 8.00861 9.99982H9.9233L9.82682 9.80944C9.6226 9.40648 9.19308 9.09879 8.7286 9.02273C8.4502 8.97715 7.471 8.9793 7.23358 9.02601ZM12.7661 13.0867C13.0388 13.253 13.0704 13.6169 12.8329 13.8544L12.7032 13.9841H8.02763C2.8369 13.9841 3.211 14.0034 3.06311 13.7288C2.93729 13.4951 3.05909 13.1449 3.30099 13.0448C3.34396 13.0271 5.46209 13.0115 8.00794 13.0102C12.584 13.0079 12.6383 13.0088 12.7661 13.0867ZM12.7317 15.0682C12.9115 15.1598 13.0253 15.3829 12.9895 15.5739C12.9508 15.7799 12.7536 15.963 12.5368 15.9942C12.4414 16.0079 10.3331 16.0139 7.8517 16.0075C3.49533 15.9962 3.33631 15.9933 3.23064 15.9217C2.9276 15.7162 2.94002 15.2678 3.25408 15.0763C3.37623 15.0018 3.48568 15 7.98841 14.9999C12.2996 14.9999 12.6064 15.0043 12.7317 15.0682Z" fill="#00A0EC"/>
</svg>


