<svg width="13" height="13" viewBox="0 0 13 13" fill="none" xmlns="http://www.w3.org/2000/svg">
    <path fill-rule="evenodd" clip-rule="evenodd" d="M9.7988 4.59178C9.53053 4.33611 9.09559 4.3361 8.82732 4.59178L5.94404 7.33977L3.06076 4.59178C2.7925 4.3361 2.35755 4.33611 2.08928 4.59178C1.82102 4.84746 1.82102 5.262 2.08928 5.51768L5.40128 8.67427C5.54993 8.81594 5.74976 8.87912 5.94404 8.86378C6.13833 8.87912 6.33815 8.81594 6.4868 8.67427L9.7988 5.51768C10.0671 5.262 10.0671 4.84746 9.7988 4.59178Z" fill="white"/>
    <path fill-rule="evenodd" clip-rule="evenodd" d="M9.7988 4.59178C9.53053 4.33611 9.09559 4.3361 8.82732 4.59178L5.94404 7.33977L3.06076 4.59178C2.7925 4.3361 2.35755 4.33611 2.08928 4.59178C1.82102 4.84746 1.82102 5.262 2.08928 5.51768L5.40128 8.67427C5.54993 8.81594 5.74976 8.87912 5.94404 8.86378C6.13833 8.87912 6.33815 8.81594 6.4868 8.67427L9.7988 5.51768C10.0671 5.262 10.0671 4.84746 9.7988 4.59178Z" fill="#AFB6C6" fill-opacity="0.6"/>
</svg>
