<svg width="20" height="20" viewBox="0 0 20 20" fill="none" xmlns="http://www.w3.org/2000/svg">
    <path fill-rule="evenodd" clip-rule="evenodd" d="M1.72664 0.0773079C1.31199 0.18595 0.996211 0.368934 0.683398 0.681773C0.365781 0.999378 0.186719 1.31214 0.0771484 1.74049C0.00179688 2.03525 0 2.19792 0 8.74905C0 15.3002 0.00179688 15.4629 0.0771484 15.7576C0.119609 15.9236 0.211797 16.1681 0.282031 16.301C0.463828 16.645 0.88957 17.0602 1.24066 17.2359C1.78617 17.5088 1.68707 17.503 5.57348 17.491L9.05715 17.4803L8.89957 17.2459C8.65391 16.8804 8.29734 16.1141 8.16738 15.6724C7.9777 15.0277 7.91664 14.5023 7.94156 13.7299C7.96629 12.9633 8.05523 12.5097 8.31715 11.8146C8.63426 10.973 9.09149 10.285 9.77113 9.62678C10.2401 9.17257 10.6757 8.85535 11.1905 8.59326C11.9962 8.18299 12.7663 7.97649 13.6246 7.94051L14.1829 7.91707L14.1706 4.90506C14.1592 2.11474 14.1531 1.87719 14.0871 1.67815C13.813 0.851045 13.2222 0.276153 12.441 0.0763313C12.1436 0.000270181 12.0094 -0.00164404 7.07383 0.000465512C2.21863 0.002536 2.00008 0.00566126 1.72664 0.0773079ZM7.07902 3.44693C7.40773 3.64015 7.56266 4.02983 7.45859 4.40154C7.39379 4.63304 7.15164 4.8842 6.92906 4.95069C6.70062 5.01897 3.29937 5.01897 3.07094 4.95069C2.7534 4.8558 2.5 4.49276 2.5 4.13265C2.5 3.81016 2.80512 3.43665 3.13422 3.35626C3.20434 3.33911 4.0791 3.32809 5.07812 3.33176L6.89453 3.33844L7.07902 3.44693ZM11.2955 6.81702C11.7807 7.15779 11.7807 7.84011 11.2955 8.18088L11.1261 8.2998L7.17438 8.3114C4.40051 8.31956 3.17879 8.31031 3.07551 8.28034C2.49508 8.11197 2.31156 7.31698 2.75875 6.90784C3.02414 6.66501 2.71961 6.68029 7.11578 6.68958L11.1261 6.6981L11.2955 6.81702ZM13.4375 9.61065C11.9815 9.78941 10.6736 10.727 10.0344 12.0501C9.56945 13.0127 9.46539 14.037 9.72824 15.0647C10.0585 16.3561 11.0452 17.488 12.2791 17.9912C12.9267 18.2552 13.1426 18.2947 13.9453 18.2959C14.6071 18.2969 14.7001 18.2883 15.0499 18.1934C15.4249 18.0916 16.0672 17.814 16.2827 17.6606L16.392 17.5827L17.5027 18.6947C18.6566 19.8499 18.8441 20 19.134 20C19.6144 20 20 19.6143 20 19.1339C20 18.844 19.8499 18.6565 18.6948 17.5024L17.5829 16.3917L17.6608 16.2824C17.8142 16.0669 18.0918 15.4245 18.1935 15.0495C18.2884 14.6997 18.297 14.6067 18.296 13.9448C18.2948 13.142 18.2554 12.9261 17.9913 12.2785C17.4549 10.9626 16.2031 9.93474 14.8166 9.67167C14.404 9.59342 13.7968 9.56654 13.4375 9.61065ZM7.83238 10.072C8.45109 10.3531 8.48426 11.2277 7.88891 11.5618L7.71484 11.6595H5.41016H3.10547L2.92098 11.551C2.45008 11.2742 2.36723 10.6377 2.75199 10.2529C2.83941 10.1655 2.9723 10.0744 3.04727 10.0506C3.1402 10.021 3.8984 10.0062 5.42969 10.004C7.52277 10.0011 7.68645 10.0057 7.83238 10.072ZM14.7852 11.3842C15.2466 11.5396 15.4893 11.6936 15.8609 12.0668C16.6089 12.8179 16.8434 13.7827 16.5262 14.8043C16.4094 15.1804 16.1885 15.5299 15.8594 15.859C15.3975 16.321 14.9242 16.5565 14.2875 16.6412C13.4636 16.7509 12.6872 16.4779 12.0674 15.8606C11.6968 15.4915 11.5437 15.2514 11.3814 14.7847C11.2838 14.5042 11.2728 14.4202 11.2736 13.9643C11.2743 13.5202 11.2875 13.4173 11.3784 13.144C11.6943 12.1945 12.4264 11.5342 13.418 11.3046C13.7868 11.2192 14.4017 11.255 14.7852 11.3842Z" fill="#AFB6C6"/>
</svg>


