<svg width="20" height="20" viewBox="0 0 20 20" fill="none" xmlns="http://www.w3.org/2000/svg">
    <path fill-rule="evenodd" clip-rule="evenodd" d="M6.49886 0.619477C5.60578 0.934781 4.23202 1.72767 3.72401 2.22103C3.34741 2.58679 3.2667 3.06692 3.47664 3.69281C3.63684 4.17036 3.6499 4.84958 3.50756 5.29938C3.2014 6.2669 2.38693 6.95656 1.36775 7.11121C0.832405 7.19241 0.491813 7.41424 0.287508 7.81471C0.100187 8.18193 -0.0336793 9.40288 0.0074654 10.3694C0.0582078 11.5627 0.170584 11.9794 0.52578 12.2921C0.738181 12.4791 0.918533 12.5489 1.43034 12.6421C2.00161 12.7462 2.35472 12.936 2.78653 13.3712C3.33906 13.928 3.55522 14.4533 3.55184 15.2309C3.55021 15.6055 3.53356 15.6951 3.38897 16.1072C3.03194 17.1247 3.2203 17.4956 4.53914 18.372C4.98748 18.67 5.87026 19.1275 6.36633 19.3191C6.87743 19.5165 7.17045 19.5211 7.53808 19.3374C7.70324 19.2548 7.85217 19.1393 7.95161 19.0166C8.43633 18.4184 8.76758 18.1686 9.32637 17.9798C10.3553 17.6323 11.4705 17.9652 12.1845 18.833C12.5835 19.3181 13.0827 19.4904 13.6025 19.3225C14.0129 19.1899 14.9161 18.7185 15.4786 18.3432C16.1926 17.8669 16.5574 17.5357 16.6787 17.2538C16.8327 16.8958 16.8335 16.7036 16.6827 16.2532C16.5143 15.7504 16.4709 15.1345 16.573 14.6995C16.7993 13.7362 17.5352 12.9963 18.4981 12.764C19.1875 12.5977 19.2155 12.5861 19.452 12.37C19.6177 12.2185 19.7059 12.0966 19.766 11.9358C20.0843 11.0851 20.076 8.63657 19.7524 7.92471C19.6463 7.69145 19.4225 7.44479 19.2233 7.3418C19.1527 7.30529 18.9653 7.24841 18.8068 7.21536C17.6996 6.98448 16.9258 6.27141 16.6598 5.23678C16.5622 4.85709 16.5941 4.14524 16.7244 3.79714C16.8554 3.44686 16.8582 3.03195 16.7313 2.75391C16.6123 2.49319 16.5051 2.37885 16.0418 2.01861C15.1253 1.30604 13.6959 0.581379 13.1097 0.532264C12.6737 0.495751 12.4934 0.584216 11.9472 1.10278C11.59 1.44183 11.401 1.58688 11.1634 1.7043C10.42 2.0716 9.60662 2.07131 8.851 1.70343C8.59336 1.57799 8.4264 1.45072 8.06157 1.1017C7.70766 0.763108 7.55139 0.642887 7.39691 0.590225C7.11941 0.495667 6.82209 0.505348 6.49886 0.619477ZM10.7991 6.75376C11.6676 6.98986 12.3332 7.46532 12.8033 8.18552C13.8023 9.7158 13.3582 11.7835 11.814 12.7915C11.2458 13.1624 10.7325 13.3095 10.0056 13.3095C9.06256 13.3095 8.30251 12.9991 7.65146 12.3481C7.00044 11.697 6.69002 10.937 6.69002 9.99388C6.69002 9.26705 6.83707 8.7537 7.208 8.18552C7.71004 7.41645 8.49083 6.89271 9.40057 6.71478C9.75593 6.64526 10.4736 6.66525 10.7991 6.75376Z" fill="#AFB6C6"/>
</svg>



