<svg width="16" height="16" viewBox="0 0 16 16" fill="none" xmlns="http://www.w3.org/2000/svg">
    <path fill-rule="evenodd" clip-rule="evenodd" d="M8 1C4.14352 1 1 4.14352 1 8C1 11.8565 4.14352 15 8 15C11.8565 15 15 11.8565 15 8C15 4.14352 11.8565 1 8 1ZM7.9999 2.55518C11.0159 2.55518 13.4443 4.98371 13.4443 7.99962C13.4443 11.0155 11.0158 13.4441 7.9999 13.4441C4.98399 13.4441 2.55546 11.0155 2.55546 7.99962C2.55546 4.98371 4.98399 2.55518 7.9999 2.55518ZM7.9901 3.33333C7.56613 3.33333 7.22213 3.67952 7.22213 4.10618V7.97041C7.22213 8.18375 7.30712 8.37796 7.44612 8.51784L9.79805 10.8847C10.098 11.1866 10.586 11.1866 10.886 10.8847C11.186 10.5828 11.186 10.0917 10.886 9.78982L8.75808 7.64839V4.10618C8.75808 3.67952 8.41408 3.33333 7.9901 3.33333Z" fill="#AFB6C6"/>
    <path d="M7.44612 8.51784L7.35745 8.60595L7.35745 8.60595L7.44612 8.51784ZM9.79805 10.8847L9.88672 10.7966L9.79805 10.8847ZM10.886 9.78982L10.9747 9.70171L10.886 9.78982ZM8.75808 7.64839H8.63308V7.69994L8.66941 7.7365L8.75808 7.64839ZM8 0.875C4.07448 0.875 0.875 4.07448 0.875 8H1.125C1.125 4.21255 4.21255 1.125 8 1.125V0.875ZM0.875 8C0.875 11.9255 4.07448 15.125 8 15.125V14.875C4.21255 14.875 1.125 11.7874 1.125 8H0.875ZM8 15.125C11.9255 15.125 15.125 11.9255 15.125 8H14.875C14.875 11.7874 11.7874 14.875 8 14.875V15.125ZM15.125 8C15.125 4.07448 11.9255 0.875 8 0.875V1.125C11.7874 1.125 14.875 4.21255 14.875 8H15.125ZM7.9999 2.68018C10.9468 2.68018 13.3193 5.05274 13.3193 7.99962H13.5693C13.5693 4.91467 11.0849 2.43018 7.9999 2.43018V2.68018ZM13.3193 7.99962C13.3193 10.9465 10.9468 13.3191 7.9999 13.3191V13.5691C11.0849 13.5691 13.5693 11.0846 13.5693 7.99962H13.3193ZM7.9999 13.3191C5.05303 13.3191 2.68046 10.9465 2.68046 7.99962H2.43046C2.43046 11.0846 4.91496 13.5691 7.9999 13.5691V13.3191ZM2.68046 7.99962C2.68046 5.05274 5.05303 2.68018 7.9999 2.68018V2.43018C4.91496 2.43018 2.43046 4.91467 2.43046 7.99962H2.68046ZM7.9901 3.20833C7.49635 3.20833 7.09713 3.61123 7.09713 4.10618H7.34713C7.34713 3.74781 7.63591 3.45833 7.9901 3.45833V3.20833ZM7.09713 4.10618V7.97041H7.34713V4.10618H7.09713ZM7.09713 7.97041C7.09713 8.21742 7.19565 8.44312 7.35745 8.60595L7.53479 8.42974C7.4186 8.3128 7.34713 8.15008 7.34713 7.97041H7.09713ZM7.35745 8.60595L9.70938 10.9728L9.88672 10.7966L7.53479 8.42974L7.35745 8.60595ZM9.70938 10.9728C10.0583 11.3239 10.6258 11.3239 10.9747 10.9728L10.7974 10.7966C10.5462 11.0493 10.1378 11.0493 9.88672 10.7966L9.70938 10.9728ZM10.9747 10.9728C11.3231 10.6221 11.3231 10.0524 10.9747 9.70171L10.7974 9.87793C11.0489 10.1311 11.0489 10.5434 10.7974 10.7966L10.9747 10.9728ZM10.9747 9.70171L8.84675 7.56028L8.66941 7.7365L10.7974 9.87793L10.9747 9.70171ZM8.88308 7.64839V4.10618H8.63308V7.64839H8.88308ZM8.88308 4.10618C8.88308 3.61123 8.48386 3.20833 7.9901 3.20833V3.45833C8.3443 3.45833 8.63308 3.74781 8.63308 4.10618H8.88308Z" fill="white"/>
</svg>
